<svg width="22" height="22" viewBox="0 0 22 22" fill="none" xmlns="http://www.w3.org/2000/svg">
<path d="M13.75 12.8332C11.3025 12.8332 6.41666 14.0523 6.41666 16.4998V18.3332H21.0833V16.4998C21.0833 14.0523 16.1975 12.8332 13.75 12.8332ZM5.49999 9.1665V6.4165H3.66666V9.1665H0.916656V10.9998H3.66666V13.7498H5.49999V10.9998H8.24999V9.1665M13.75 10.9998C14.7225 10.9998 15.6551 10.6135 16.3427 9.92589C17.0303 9.23826 17.4167 8.30563 17.4167 7.33317C17.4167 6.36071 17.0303 5.42808 16.3427 4.74045C15.6551 4.05281 14.7225 3.6665 13.75 3.6665C12.7775 3.6665 11.8449 4.05281 11.1573 4.74045C10.4696 5.42808 10.0833 6.36071 10.0833 7.33317C10.0833 8.30563 10.4696 9.23826 11.1573 9.92589C11.8449 10.6135 12.7775 10.9998 13.75 10.9998Z" fill="#0860C7"/>
</svg>
