<svg width="12" height="11" viewBox="0 0 12 11" fill="none" xmlns="http://www.w3.org/2000/svg">
<path d="M0.906555 6.25773H9.28405L5.62405 9.7144C5.33155 9.99065 5.33155 10.444 5.62405 10.7202C5.91655 10.9965 6.38905 10.9965 6.68155 10.7202L11.6241 6.05231C11.9166 5.77606 11.9166 5.32981 11.6241 5.05356L6.68905 0.378564C6.54893 0.245927 6.35869 0.171387 6.1603 0.171387C5.96192 0.171387 5.77168 0.245927 5.63156 0.378564C5.33906 0.654814 5.33906 1.10106 5.63156 1.37731L9.28405 4.84106H0.906555C0.494055 4.84106 0.156555 5.15981 0.156555 5.5494C0.156555 5.93898 0.494055 6.25773 0.906555 6.25773Z" fill="#0860C7"/>
</svg>
