<svg width="24" height="24" viewBox="0 0 24 24" fill="none" xmlns="http://www.w3.org/2000/svg">
<path fill-rule="evenodd" clip-rule="evenodd" d="M11.9995 0C11.0527 0 10.2852 0.767512 10.2852 1.71429V10.2857H1.71429C0.767512 10.2857 0 11.0532 0 12C0 12.9468 0.767512 13.7143 1.71429 13.7143H10.2852V22.2857C10.2852 23.2325 11.0527 24 11.9995 24C12.9463 24 13.7138 23.2325 13.7138 22.2857V13.7143H22.2857C23.2325 13.7143 24 12.9468 24 12C24 11.0532 23.2325 10.2857 22.2857 10.2857H13.7138V1.71429C13.7138 0.767512 12.9463 0 11.9995 0Z" fill="#0860C7"/>
</svg>
