<svg width="40" height="40" viewBox="0 0 40 40" fill="none" xmlns="http://www.w3.org/2000/svg">
<circle cx="20" cy="20" r="20" fill="white"/>
<path d="M21.6043 24.7416C21.6043 26.3089 21.6004 27.8722 21.6082 29.4395C21.6082 29.611 21.5614 29.6578 21.3899 29.6539C20.0565 29.6461 18.7271 29.6461 17.3938 29.6539C17.2105 29.6539 17.152 29.611 17.152 29.42C17.1598 26.3127 17.1559 23.2094 17.1559 20.1022C17.1559 19.7903 17.191 19.8293 16.8713 19.8254C16.306 19.8254 15.7407 19.8215 15.1754 19.8293C15.039 19.8293 15 19.7864 15 19.65C15.0039 18.6636 15.0039 17.6734 15 16.687C15 16.5506 15.039 16.5077 15.1754 16.5116C15.768 16.5194 16.3567 16.5077 16.9493 16.5194C17.1092 16.5233 17.1598 16.4804 17.1598 16.3127C17.152 15.4823 17.1598 14.648 17.1559 13.8176C17.152 13.1276 17.2573 12.4609 17.6043 11.8527C17.9786 11.1899 18.54 10.7338 19.2339 10.4375C19.8187 10.188 20.4347 10.071 21.0663 10.0359C22.3177 9.96577 23.5731 10.0242 24.8246 10.0009C24.9649 9.99696 25 10.0476 25 10.1802C24.9961 11.2055 24.9961 12.2348 25 13.2601C25 13.4161 24.9415 13.4395 24.8051 13.4395C24.0838 13.4356 23.3626 13.4356 22.6413 13.4356C22.0409 13.4356 21.6082 13.8683 21.6082 14.4609C21.6082 15.073 21.616 15.6812 21.6043 16.2933C21.6004 16.4687 21.6589 16.5116 21.8265 16.5116C22.8129 16.5038 23.8031 16.5116 24.7895 16.5038C24.9532 16.5038 25.0078 16.5506 24.9883 16.7143C24.9298 17.2172 24.8791 17.7202 24.8246 18.2231C24.7739 18.7065 24.6881 19.186 24.6101 19.6656C24.5867 19.802 24.5439 19.8332 24.4191 19.8332C23.5731 19.8293 22.731 19.8293 21.885 19.8332C21.5536 19.8332 21.6004 19.7903 21.6004 20.1256C21.6043 21.6617 21.6043 23.2016 21.6043 24.7416Z" fill="#0860C7"/>
</svg>
