<svg width="23" height="22" viewBox="0 0 23 22" fill="none" xmlns="http://www.w3.org/2000/svg">
<path fill-rule="evenodd" clip-rule="evenodd" d="M22.0946 18.9636L17.843 14.7149C19.1596 12.7733 19.7047 10.4109 19.3717 8.08916C19.0387 5.76744 17.8515 3.65316 16.042 2.15932C14.2326 0.665472 11.9309 -0.100642 9.58643 0.0106206C7.24199 0.121883 5.02327 1.10253 3.36364 2.76101C1.704 4.4195 0.722676 6.63668 0.611336 8.97949C0.499996 11.3223 1.26664 13.6224 2.76152 15.4306C4.25641 17.2388 6.37215 18.4252 8.69547 18.758C11.0188 19.0907 13.3828 18.5461 15.3258 17.2303L19.5775 21.479C19.9113 21.8126 20.364 22 20.8361 22C21.3081 22 21.7609 21.8126 22.0946 21.479C22.4284 21.1455 22.616 20.6931 22.616 20.2213C22.616 19.7496 22.4284 19.2972 22.0946 18.9636ZM10.0314 15.7152C8.78564 15.7157 7.56769 15.3469 6.53165 14.6556C5.4956 13.9642 4.68802 12.9813 4.21105 11.8313C3.73408 10.6812 3.60916 9.41559 3.85208 8.19456C4.095 6.97352 4.69486 5.85191 5.57577 4.97161C6.45668 4.09131 7.57906 3.49187 8.80095 3.24912C10.0228 3.00636 11.2893 3.1312 12.4402 3.60784C13.5911 4.08448 14.5746 4.8915 15.2664 5.92683C15.9583 6.96215 16.3273 8.17926 16.3268 9.42419C16.3268 11.0927 15.6635 12.6928 14.4829 13.8726C13.3023 15.0524 11.7011 15.7152 10.0314 15.7152Z" fill="#0860C7"/>
</svg>
