<svg width="40" height="40" viewBox="0 0 40 40" fill="none" xmlns="http://www.w3.org/2000/svg">
<circle cx="20" cy="20" r="20" fill="white"/>
<path d="M20.0003 9.0106C15.4947 9.0106 11.2162 8.61012 9.58197 12.8009C8.90694 14.5318 9.00497 16.7797 9.00497 19.9985C9.00497 22.8229 8.91438 25.4775 9.58197 27.1947C11.2125 31.388 15.5257 30.9863 19.9978 30.9863C24.3123 30.9863 28.7608 31.4351 30.4149 27.1947C31.0911 25.4465 30.9919 23.2321 30.9919 19.9985C30.9919 15.706 31.2289 12.9348 29.1455 10.8543C27.036 8.74651 24.1832 9.0106 19.9953 9.0106H20.0003ZM19.015 10.9907C28.4133 10.9758 29.6095 9.93184 28.9494 24.4348C28.7149 29.5642 24.8061 29.0012 20.0015 29.0012C11.241 29.0012 10.9891 28.7508 10.9891 19.9935C10.9891 11.1345 11.684 10.9957 19.015 10.9882V10.9907ZM25.8696 12.8146C25.1412 12.8146 24.5505 13.4048 24.5505 14.1326C24.5505 14.8604 25.1412 15.4506 25.8696 15.4506C26.598 15.4506 27.1886 14.8604 27.1886 14.1326C27.1886 13.4048 26.598 12.8146 25.8696 12.8146ZM20.0003 14.3557C16.882 14.3557 14.3543 16.8826 14.3543 19.9985C14.3543 23.1143 16.882 25.6399 20.0003 25.6399C23.1186 25.6399 25.645 23.1143 25.645 19.9985C25.645 16.8826 23.1186 14.3557 20.0003 14.3557ZM20.0003 16.3358C24.8459 16.3358 24.8521 23.6611 20.0003 23.6611C15.1559 23.6611 15.1485 16.3358 20.0003 16.3358Z" fill="#0860C7"/>
</svg>
