<svg width="177" height="41" viewBox="0 0 177 41" fill="none" xmlns="http://www.w3.org/2000/svg">
<g clip-path="url(#clip0_5246_22802)">
<path fill-rule="evenodd" clip-rule="evenodd" d="M168.465 9.90314L166.987 7.24306H162.572V12.7149H166.903L168.465 9.90314ZM65.5765 33.0107L72.0324 7.24634L73.7613 33.5552H81.0076L78.798 0H67.4881L61.9418 22.5516L56.3972 0H45.0864L42.8768 33.5544H50.1248L51.8553 7.24552L58.3088 33.0099H65.5765V33.0107ZM150.037 12.7149H153.855V23.5799C153.855 29.2888 155.298 33.5478 161.635 33.5478C163.927 33.5478 165.817 32.9747 166.886 32.5474V26.445C163.1 27.1502 161.258 27.388 161.258 22.3614V0.0082L153.855 0.01066V7.24306H150.612L150.037 12.7149ZM140.747 14.1967C140.747 10.9085 146.89 11.9663 148.752 12.7149L149.325 7.2447C143.098 5.32508 133.443 6.75762 133.456 14.9183C133.329 22.9682 145.229 21.8702 145.229 25.7013C145.229 29.7439 135.904 27.6725 133.876 26.445L132.818 31.9193C139.745 34.9656 152.899 34.2916 152.548 25.1379C152.427 16.2606 140.747 17.8317 140.747 14.1967ZM124.909 17.0429C124.909 9.90232 115.236 9.80638 115.307 17.0429H124.909ZM115.252 22.5664C115.76 28.8902 125.647 27.7931 129.927 26.445L130.99 31.9177C120.983 35.7307 107.629 33.2461 107.629 20.2819C107.629 3.0012 132.426 1.12668 132.426 19.384C132.426 20.7632 132.27 21.9858 132.163 22.5656H115.252V22.5664Z" fill="#0061AF"/>
<path fill-rule="evenodd" clip-rule="evenodd" d="M170.982 0.00976562H165.495L170.991 9.90306L165.495 19.7964H170.982L176.541 9.90306L170.982 0.00976562ZM98.7298 17.0428C98.7298 9.90143 89.0565 9.80549 89.1281 17.0428H98.7298ZM89.073 22.5663C89.5809 28.8902 99.4674 27.793 103.748 26.4449L104.811 31.9176C94.8045 35.7306 81.4505 33.246 81.4505 20.2818C81.4505 3.00113 106.248 1.12661 106.248 19.3839C106.248 20.7631 106.091 21.9858 105.984 22.5655H89.073V22.5663ZM25.1406 17.0772H31.7217L33.6638 24.4917C33.8943 25.3978 34.1577 26.6056 34.3545 27.4109H34.4862C34.6838 26.572 34.8814 25.365 35.0789 24.4917L36.5591 17.0772H42.8768L39.4216 27.5454C36.9872 34.4908 35.4074 37.0073 33.63 38.5842C31.7876 40.2619 29.7475 40.8318 28.2665 40.9999L27.0489 35.8995C27.7435 35.7763 28.4186 35.562 29.0568 35.2624C29.8126 34.9606 30.6029 34.2899 30.9651 33.7528C31.1627 33.5174 31.2936 33.2493 31.2936 33.0148C31.2936 32.813 31.2277 32.5449 31.0631 32.1087L25.1406 17.0772ZM0.131721 33.5847V22.6811C0.131721 20.4999 0.0658605 18.5877 0 17.0781H4.96917L5.19968 19.1248H5.3314C5.9225 18.3195 7.3385 16.7091 10.1022 16.7091C12.1751 16.7091 13.7879 17.6816 14.4794 19.3257H14.5453C15.2031 18.4876 15.9267 17.8169 16.7821 17.3798C17.6053 16.9436 18.5595 16.7091 19.6454 16.7091C23.1335 16.7091 25.1406 19.2921 25.1406 23.8554V33.5855H19.3819V24.7606C19.3819 22.7139 18.7892 21.5397 17.4728 21.5397C16.5195 21.5397 15.9267 22.1776 15.6633 22.9484C15.5315 23.2846 15.4986 23.8209 15.4986 24.1563V33.5847H9.74076V24.5934C9.74076 22.7484 9.18095 21.5397 7.86374 21.5397C6.77869 21.5397 6.28556 22.3449 6.05505 22.9156C5.8904 23.2846 5.8904 23.7201 5.8904 24.1235V33.5847H0.131721Z" fill="#E60033"/>
</g>
<defs>
<clipPath id="clip0_5246_22802">
<rect width="177" height="41" fill="white"/>
</clipPath>
</defs>
</svg>
