<svg width="144" height="60" viewBox="0 0 144 60" fill="none" xmlns="http://www.w3.org/2000/svg">
<g clip-path="url(#clip0_4947_1488)">
<path d="M29.6433 53.1204C30.2275 53.4984 31.2944 53.9016 32.285 53.9016C33.7329 53.9016 34.4187 53.1708 34.4187 52.2636C34.4187 51.306 33.8599 50.802 32.3612 50.2476C30.3799 49.542 29.4401 48.4585 29.4401 47.1481C29.4401 45.3841 30.8626 43.9478 33.2503 43.9478C34.3679 43.9478 35.3332 44.2754 35.9682 44.6281L35.4602 46.0645C35.0284 45.7873 34.2409 45.4345 33.1995 45.4345C32.0056 45.4345 31.3452 46.1149 31.3452 46.9213C31.3452 47.8285 32.0056 48.2317 33.4281 48.7609C35.3332 49.4916 36.3238 50.424 36.3238 52.062C36.3238 53.9772 34.8252 55.3631 32.2088 55.3631C30.9896 55.3631 29.8973 55.0355 29.1099 54.6071L29.6433 53.1204Z" fill="#0056A4"/>
<path d="M38.9148 39.1094H40.9215V45.9384H40.9723C41.3025 45.3841 41.7851 44.8801 42.3948 44.5273C42.979 44.1997 43.6902 43.9729 44.4523 43.9729C45.9256 43.9729 48.2879 44.8801 48.2879 48.66V55.1615H46.2812V48.8868C46.2812 47.1228 45.6207 45.636 43.741 45.636C42.4456 45.636 41.4295 46.5432 41.0485 47.6268C40.9469 47.904 40.9215 48.1812 40.9215 48.5844V55.1867H38.9148V39.1094Z" fill="#0056A4"/>
<path d="M61.522 49.5926C61.522 53.6246 58.7024 55.3885 56.0353 55.3885C53.0634 55.3885 50.7518 53.2214 50.7518 49.769C50.7518 46.1151 53.165 43.9731 56.2131 43.9731C59.3883 43.9731 61.522 46.2663 61.522 49.5926ZM52.7839 49.7186C52.7839 52.1126 54.181 53.9269 56.1369 53.9269C58.042 53.9269 59.4899 52.1378 59.4899 49.6682C59.4899 47.8287 58.55 45.4599 56.1877 45.4599C53.8254 45.4599 52.7839 47.6271 52.7839 49.7186Z" fill="#0056A4"/>
<path d="M64.0621 47.8035C64.0621 46.3923 64.0113 45.2835 63.9604 44.2251H65.7639L65.8655 46.0899H65.9163C66.7292 44.7543 68.0247 43.9731 69.8281 43.9731C72.4953 43.9731 74.502 46.2159 74.502 49.517C74.502 53.4482 72.0889 55.3885 69.4979 55.3885C68.0501 55.3885 66.7546 54.7585 66.0942 53.675H66.0434V59.622H64.0621V47.8035ZM66.0434 50.7014C66.0434 51.0038 66.0942 51.2558 66.145 51.5078C66.5006 52.8938 67.7198 53.8261 69.1423 53.8261C71.2506 53.8261 72.4953 52.1126 72.4953 49.5926C72.4953 47.4003 71.3268 45.5355 69.2185 45.5355C67.8468 45.5355 66.5768 46.5183 66.1958 48.0051C66.1196 48.2571 66.0688 48.5343 66.0688 48.8114V50.7014H66.0434Z" fill="#0056A4"/>
<path d="M77.0168 47.8035C77.0168 46.3923 76.966 45.2835 76.9152 44.2251H78.7187L78.8203 46.0899H78.8711C79.6839 44.7543 80.9794 43.9731 82.7829 43.9731C85.45 43.9731 87.4567 46.2159 87.4567 49.517C87.4567 53.4482 85.0436 55.3885 82.4527 55.3885C81.0048 55.3885 79.7093 54.7585 79.0489 53.675H78.9981V59.622H77.0168V47.8035ZM78.9981 50.7014C78.9981 51.0038 79.0489 51.2558 79.0997 51.5078C79.4553 52.8938 80.6746 53.8261 82.097 53.8261C84.2053 53.8261 85.45 52.1126 85.45 49.5926C85.45 47.4003 84.2815 45.5355 82.1732 45.5355C80.8016 45.5355 79.5315 46.5183 79.1505 48.0051C79.0743 48.2571 79.0235 48.5343 79.0235 48.8114V50.7014H78.9981Z" fill="#0056A4"/>
<path d="M92.2067 41.1508C92.2321 41.8312 91.7241 42.3604 90.9367 42.3604C90.2254 42.3604 89.7174 41.806 89.7174 41.1508C89.7174 40.4452 90.2508 39.916 90.9621 39.916C91.7241 39.916 92.2067 40.4452 92.2067 41.1508ZM89.9714 44.2251H91.9781V55.1617H89.9714V44.2251Z" fill="#0056A4"/>
<path d="M95.3057 47.1735C95.3057 46.0395 95.2803 45.1071 95.2041 44.2251H96.9822L97.0838 46.0395H97.1346C97.6934 45.0063 98.9635 43.9731 100.767 43.9731C102.291 43.9731 104.653 44.8803 104.653 48.6351V55.1617H102.647V48.8618C102.647 47.0979 101.986 45.6363 100.107 45.6363C98.7857 45.6363 97.7696 46.5687 97.414 47.6775C97.3124 47.9295 97.287 48.2571 97.287 48.6098V55.1869H95.2803V47.1735H95.3057Z" fill="#0056A4"/>
<path d="M117.329 53.5743C117.329 56.0691 116.821 57.6063 115.754 58.5638C114.687 59.5466 113.137 59.8742 111.74 59.8742C110.419 59.8742 108.972 59.5466 108.083 58.967L108.591 57.4551C109.327 57.9087 110.445 58.3118 111.817 58.3118C113.874 58.3118 115.373 57.2535 115.373 54.5067V53.2971H115.322C114.712 54.3051 113.518 55.1367 111.817 55.1367C109.073 55.1367 107.117 52.8436 107.117 49.7944C107.117 46.0901 109.556 43.9985 112.071 43.9985C113.976 43.9985 115.043 44.9813 115.5 45.8885H115.551L115.652 44.2505H117.405C117.354 45.0317 117.303 45.9137 117.303 47.2493V53.5743H117.329ZM115.347 48.5344C115.347 48.2069 115.322 47.9045 115.246 47.6273C114.89 46.4681 113.899 45.5357 112.452 45.5357C110.546 45.5357 109.175 47.1485 109.175 49.6684C109.175 51.8104 110.267 53.5995 112.426 53.5995C113.645 53.5995 114.763 52.8436 115.195 51.5584C115.297 51.2308 115.347 50.8276 115.347 50.5V48.5344Z" fill="#0056A4"/>
<path d="M92.7401 13.6077C92.7401 10.5081 98.5316 11.5161 100.31 12.1965L100.843 7.0558C94.95 5.26664 85.831 6.60221 85.8564 14.2881C85.7294 21.8731 96.9567 20.8399 96.9567 24.4435C96.9567 28.2486 88.1425 26.283 86.212 25.149L85.1959 30.2897C91.7495 33.1625 104.171 32.5073 103.84 23.9143C103.764 15.548 92.7401 17.0096 92.7401 13.6077Z" fill="#0056A4"/>
<path d="M61.4458 19.328C61.4458 31.5246 74.0702 33.8681 83.5195 30.2646L82.5035 25.1239C78.4647 26.4091 69.117 27.417 68.6344 21.47H84.6118C84.7134 20.9156 84.8658 19.7816 84.8658 18.4712C84.8658 1.28516 61.4458 3.04913 61.4458 19.328ZM68.6852 16.2789C68.609 9.475 77.7534 9.5506 77.7534 16.2789H68.6852Z" fill="#0056A4"/>
<path d="M112.096 21.2429V0.226562H105.085V7.05563H102.012L101.478 12.1963H105.085V22.4273C105.085 27.7948 106.457 31.8015 112.452 31.8015C114.611 31.8015 116.414 31.2471 117.405 30.844V25.0985C113.849 25.7789 112.096 26.0056 112.096 21.2429Z" fill="#0056A4"/>
<path d="M23.6232 0.226562L18.3651 21.4697L13.1324 0.226562H2.4639L0.355591 31.8267H7.21394L8.83963 7.08083L14.9613 31.3227H21.7943V31.2975L27.8906 7.05563L29.5417 31.8015H36.4L34.2917 0.226562H23.6232Z" fill="#0056A4"/>
<path d="M125.432 26.8374C124.035 26.8374 122.917 27.9462 122.917 29.3322C122.917 30.7181 124.035 31.8269 125.432 31.8269C126.803 31.8269 127.946 30.7181 127.946 29.3322C127.946 27.9462 126.803 26.8374 125.432 26.8374Z" fill="#E40138"/>
<path d="M135.846 26.8374C134.449 26.8374 133.331 27.9462 133.331 29.3322C133.331 30.7181 134.449 31.8269 135.846 31.8269C137.243 31.8269 138.361 30.7181 138.361 29.3322C138.361 27.9462 137.243 26.8374 135.846 26.8374Z" fill="#E40138"/>
<path d="M142.044 13.1287H127.769C127.057 13.1287 126.473 13.7083 126.473 14.4139C126.473 15.1195 127.057 15.6991 127.769 15.6991H140.393L139.58 18.3954H126.752C126.092 18.3954 125.559 18.9246 125.559 19.5798C125.559 20.235 126.092 20.7642 126.752 20.7642H138.894L138.132 23.2841H123.654L122.688 15.6991L121.774 8.29044C121.698 7.71085 121.266 7.18166 120.707 7.05566H113.341V12.1964H119.386L121.037 24.5693C121.037 24.5693 121.113 26.3081 122.688 26.3081H138.691C140.037 26.3081 140.291 24.9221 140.291 24.9221L143.467 15.5731C143.467 15.5731 144.406 13.1287 142.044 13.1287Z" fill="#E40138"/>
<path d="M36.8319 19.328C36.8319 31.5246 49.4564 33.8681 58.9056 30.2646L57.8896 25.1239C53.8508 26.4091 44.5031 27.417 44.0205 21.47H59.9979C60.0995 20.9156 60.2519 19.7816 60.2519 18.4712C60.2519 1.28516 36.8319 3.04913 36.8319 19.328ZM44.0713 16.2789C43.9951 9.475 53.1395 9.5506 53.1395 16.2789H44.0713Z" fill="#E40138"/>
</g>
<defs>
<clipPath id="clip0_4947_1488">
<rect width="144" height="60" fill="white"/>
</clipPath>
</defs>
</svg>
