<svg width="21" height="20" viewBox="0 0 21 20" fill="none" xmlns="http://www.w3.org/2000/svg">
<g clip-path="url(#clip0_4947_1486)">
<path d="M17.1224 17.5H13.8389C13.5809 17.5 13.3698 17.2891 13.3698 17.0312V15.4687C13.3698 15.2109 13.5809 15 13.8389 15H17.1224C17.8143 15 18.3733 14.4414 18.3733 13.75V6.25C18.3733 5.55859 17.8143 5 17.1224 5H13.8389C13.5809 5 13.3698 4.78906 13.3698 4.53125V2.96875C13.3698 2.71094 13.5809 2.5 13.8389 2.5H17.1224C19.1941 2.5 20.875 4.17969 20.875 6.25V13.75C20.875 15.8203 19.1941 17.5 17.1224 17.5ZM15.2852 9.64844L8.71811 3.08594C8.13176 2.5 7.11543 2.91016 7.11543 3.75V7.5H1.79924C1.27934 7.5 0.861084 7.91797 0.861084 8.4375V12.1875C0.861084 12.707 1.27934 13.125 1.79924 13.125H7.11543V16.875C7.11543 17.7148 8.13176 18.125 8.71811 17.5391L15.2852 10.9766C15.6487 10.6094 15.6487 10.0156 15.2852 9.64844Z" fill="#0860C7"/>
</g>
<defs>
<clipPath id="clip0_4947_1486">
<rect width="20.0139" height="20" fill="white" transform="translate(0.861084)"/>
</clipPath>
</defs>
</svg>
